<svg xmlns="http://www.w3.org/2000/svg" viewBox="0 0 370 370" width="370" height="370">
<rect width="370" height="370" fill="white"/>
<rect x="20" y="20" width="10" height="10" fill="#1a3a5c"/>
<rect x="30" y="20" width="10" height="10" fill="#1a3a5c"/>
<rect x="40" y="20" width="10" height="10" fill="#1a3a5c"/>
<rect x="50" y="20" width="10" height="10" fill="#1a3a5c"/>
<rect x="60" y="20" width="10" height="10" fill="#1a3a5c"/>
<rect x="70" y="20" width="10" height="10" fill="#1a3a5c"/>
<rect x="80" y="20" width="10" height="10" fill="#1a3a5c"/>
<rect x="100" y="20" width="10" height="10" fill="#1a3a5c"/>
<rect x="130" y="20" width="10" height="10" fill="#1a3a5c"/>
<rect x="140" y="20" width="10" height="10" fill="#1a3a5c"/>
<rect x="160" y="20" width="10" height="10" fill="#1a3a5c"/>
<rect x="230" y="20" width="10" height="10" fill="#1a3a5c"/>
<rect x="260" y="20" width="10" height="10" fill="#1a3a5c"/>
<rect x="280" y="20" width="10" height="10" fill="#1a3a5c"/>
<rect x="290" y="20" width="10" height="10" fill="#1a3a5c"/>
<rect x="300" y="20" width="10" height="10" fill="#1a3a5c"/>
<rect x="310" y="20" width="10" height="10" fill="#1a3a5c"/>
<rect x="320" y="20" width="10" height="10" fill="#1a3a5c"/>
<rect x="330" y="20" width="10" height="10" fill="#1a3a5c"/>
<rect x="340" y="20" width="10" height="10" fill="#1a3a5c"/>
<rect x="20" y="30" width="10" height="10" fill="#1a3a5c"/>
<rect x="80" y="30" width="10" height="10" fill="#1a3a5c"/>
<rect x="110" y="30" width="10" height="10" fill="#1a3a5c"/>
<rect x="130" y="30" width="10" height="10" fill="#1a3a5c"/>
<rect x="150" y="30" width="10" height="10" fill="#1a3a5c"/>
<rect x="160" y="30" width="10" height="10" fill="#1a3a5c"/>
<rect x="180" y="30" width="10" height="10" fill="#1a3a5c"/>
<rect x="220" y="30" width="10" height="10" fill="#1a3a5c"/>
<rect x="230" y="30" width="10" height="10" fill="#1a3a5c"/>
<rect x="240" y="30" width="10" height="10" fill="#1a3a5c"/>
<rect x="260" y="30" width="10" height="10" fill="#1a3a5c"/>
<rect x="280" y="30" width="10" height="10" fill="#1a3a5c"/>
<rect x="340" y="30" width="10" height="10" fill="#1a3a5c"/>
<rect x="20" y="40" width="10" height="10" fill="#1a3a5c"/>
<rect x="40" y="40" width="10" height="10" fill="#1a3a5c"/>
<rect x="50" y="40" width="10" height="10" fill="#1a3a5c"/>
<rect x="60" y="40" width="10" height="10" fill="#1a3a5c"/>
<rect x="80" y="40" width="10" height="10" fill="#1a3a5c"/>
<rect x="100" y="40" width="10" height="10" fill="#1a3a5c"/>
<rect x="110" y="40" width="10" height="10" fill="#1a3a5c"/>
<rect x="120" y="40" width="10" height="10" fill="#1a3a5c"/>
<rect x="140" y="40" width="10" height="10" fill="#1a3a5c"/>
<rect x="160" y="40" width="10" height="10" fill="#1a3a5c"/>
<rect x="190" y="40" width="10" height="10" fill="#1a3a5c"/>
<rect x="200" y="40" width="10" height="10" fill="#1a3a5c"/>
<rect x="210" y="40" width="10" height="10" fill="#1a3a5c"/>
<rect x="220" y="40" width="10" height="10" fill="#1a3a5c"/>
<rect x="230" y="40" width="10" height="10" fill="#1a3a5c"/>
<rect x="250" y="40" width="10" height="10" fill="#1a3a5c"/>
<rect x="280" y="40" width="10" height="10" fill="#1a3a5c"/>
<rect x="300" y="40" width="10" height="10" fill="#1a3a5c"/>
<rect x="310" y="40" width="10" height="10" fill="#1a3a5c"/>
<rect x="320" y="40" width="10" height="10" fill="#1a3a5c"/>
<rect x="340" y="40" width="10" height="10" fill="#1a3a5c"/>
<rect x="20" y="50" width="10" height="10" fill="#1a3a5c"/>
<rect x="40" y="50" width="10" height="10" fill="#1a3a5c"/>
<rect x="50" y="50" width="10" height="10" fill="#1a3a5c"/>
<rect x="60" y="50" width="10" height="10" fill="#1a3a5c"/>
<rect x="80" y="50" width="10" height="10" fill="#1a3a5c"/>
<rect x="110" y="50" width="10" height="10" fill="#1a3a5c"/>
<rect x="120" y="50" width="10" height="10" fill="#1a3a5c"/>
<rect x="130" y="50" width="10" height="10" fill="#1a3a5c"/>
<rect x="140" y="50" width="10" height="10" fill="#1a3a5c"/>
<rect x="160" y="50" width="10" height="10" fill="#1a3a5c"/>
<rect x="170" y="50" width="10" height="10" fill="#1a3a5c"/>
<rect x="180" y="50" width="10" height="10" fill="#1a3a5c"/>
<rect x="190" y="50" width="10" height="10" fill="#1a3a5c"/>
<rect x="200" y="50" width="10" height="10" fill="#1a3a5c"/>
<rect x="210" y="50" width="10" height="10" fill="#1a3a5c"/>
<rect x="230" y="50" width="10" height="10" fill="#1a3a5c"/>
<rect x="240" y="50" width="10" height="10" fill="#1a3a5c"/>
<rect x="260" y="50" width="10" height="10" fill="#1a3a5c"/>
<rect x="280" y="50" width="10" height="10" fill="#1a3a5c"/>
<rect x="300" y="50" width="10" height="10" fill="#1a3a5c"/>
<rect x="310" y="50" width="10" height="10" fill="#1a3a5c"/>
<rect x="320" y="50" width="10" height="10" fill="#1a3a5c"/>
<rect x="340" y="50" width="10" height="10" fill="#1a3a5c"/>
<rect x="20" y="60" width="10" height="10" fill="#1a3a5c"/>
<rect x="40" y="60" width="10" height="10" fill="#1a3a5c"/>
<rect x="50" y="60" width="10" height="10" fill="#1a3a5c"/>
<rect x="60" y="60" width="10" height="10" fill="#1a3a5c"/>
<rect x="80" y="60" width="10" height="10" fill="#1a3a5c"/>
<rect x="110" y="60" width="10" height="10" fill="#1a3a5c"/>
<rect x="120" y="60" width="10" height="10" fill="#1a3a5c"/>
<rect x="130" y="60" width="10" height="10" fill="#1a3a5c"/>
<rect x="150" y="60" width="10" height="10" fill="#1a3a5c"/>
<rect x="160" y="60" width="10" height="10" fill="#1a3a5c"/>
<rect x="170" y="60" width="10" height="10" fill="#1a3a5c"/>
<rect x="180" y="60" width="10" height="10" fill="#1a3a5c"/>
<rect x="190" y="60" width="10" height="10" fill="#1a3a5c"/>
<rect x="240" y="60" width="10" height="10" fill="#1a3a5c"/>
<rect x="280" y="60" width="10" height="10" fill="#1a3a5c"/>
<rect x="300" y="60" width="10" height="10" fill="#1a3a5c"/>
<rect x="310" y="60" width="10" height="10" fill="#1a3a5c"/>
<rect x="320" y="60" width="10" height="10" fill="#1a3a5c"/>
<rect x="340" y="60" width="10" height="10" fill="#1a3a5c"/>
<rect x="20" y="70" width="10" height="10" fill="#1a3a5c"/>
<rect x="80" y="70" width="10" height="10" fill="#1a3a5c"/>
<rect x="100" y="70" width="10" height="10" fill="#1a3a5c"/>
<rect x="150" y="70" width="10" height="10" fill="#1a3a5c"/>
<rect x="180" y="70" width="10" height="10" fill="#1a3a5c"/>
<rect x="200" y="70" width="10" height="10" fill="#1a3a5c"/>
<rect x="260" y="70" width="10" height="10" fill="#1a3a5c"/>
<rect x="280" y="70" width="10" height="10" fill="#1a3a5c"/>
<rect x="340" y="70" width="10" height="10" fill="#1a3a5c"/>
<rect x="20" y="80" width="10" height="10" fill="#1a3a5c"/>
<rect x="30" y="80" width="10" height="10" fill="#1a3a5c"/>
<rect x="40" y="80" width="10" height="10" fill="#1a3a5c"/>
<rect x="50" y="80" width="10" height="10" fill="#1a3a5c"/>
<rect x="60" y="80" width="10" height="10" fill="#1a3a5c"/>
<rect x="70" y="80" width="10" height="10" fill="#1a3a5c"/>
<rect x="80" y="80" width="10" height="10" fill="#1a3a5c"/>
<rect x="100" y="80" width="10" height="10" fill="#1a3a5c"/>
<rect x="120" y="80" width="10" height="10" fill="#1a3a5c"/>
<rect x="140" y="80" width="10" height="10" fill="#1a3a5c"/>
<rect x="160" y="80" width="10" height="10" fill="#1a3a5c"/>
<rect x="180" y="80" width="10" height="10" fill="#1a3a5c"/>
<rect x="200" y="80" width="10" height="10" fill="#1a3a5c"/>
<rect x="220" y="80" width="10" height="10" fill="#1a3a5c"/>
<rect x="240" y="80" width="10" height="10" fill="#1a3a5c"/>
<rect x="260" y="80" width="10" height="10" fill="#1a3a5c"/>
<rect x="280" y="80" width="10" height="10" fill="#1a3a5c"/>
<rect x="290" y="80" width="10" height="10" fill="#1a3a5c"/>
<rect x="300" y="80" width="10" height="10" fill="#1a3a5c"/>
<rect x="310" y="80" width="10" height="10" fill="#1a3a5c"/>
<rect x="320" y="80" width="10" height="10" fill="#1a3a5c"/>
<rect x="330" y="80" width="10" height="10" fill="#1a3a5c"/>
<rect x="340" y="80" width="10" height="10" fill="#1a3a5c"/>
<rect x="110" y="90" width="10" height="10" fill="#1a3a5c"/>
<rect x="120" y="90" width="10" height="10" fill="#1a3a5c"/>
<rect x="160" y="90" width="10" height="10" fill="#1a3a5c"/>
<rect x="210" y="90" width="10" height="10" fill="#1a3a5c"/>
<rect x="220" y="90" width="10" height="10" fill="#1a3a5c"/>
<rect x="260" y="90" width="10" height="10" fill="#1a3a5c"/>
<rect x="20" y="100" width="10" height="10" fill="#1a3a5c"/>
<rect x="40" y="100" width="10" height="10" fill="#1a3a5c"/>
<rect x="80" y="100" width="10" height="10" fill="#1a3a5c"/>
<rect x="90" y="100" width="10" height="10" fill="#1a3a5c"/>
<rect x="110" y="100" width="10" height="10" fill="#1a3a5c"/>
<rect x="140" y="100" width="10" height="10" fill="#1a3a5c"/>
<rect x="170" y="100" width="10" height="10" fill="#1a3a5c"/>
<rect x="180" y="100" width="10" height="10" fill="#1a3a5c"/>
<rect x="220" y="100" width="10" height="10" fill="#1a3a5c"/>
<rect x="240" y="100" width="10" height="10" fill="#1a3a5c"/>
<rect x="290" y="100" width="10" height="10" fill="#1a3a5c"/>
<rect x="320" y="100" width="10" height="10" fill="#1a3a5c"/>
<rect x="340" y="100" width="10" height="10" fill="#1a3a5c"/>
<rect x="30" y="110" width="10" height="10" fill="#1a3a5c"/>
<rect x="50" y="110" width="10" height="10" fill="#1a3a5c"/>
<rect x="60" y="110" width="10" height="10" fill="#1a3a5c"/>
<rect x="70" y="110" width="10" height="10" fill="#1a3a5c"/>
<rect x="130" y="110" width="10" height="10" fill="#1a3a5c"/>
<rect x="140" y="110" width="10" height="10" fill="#1a3a5c"/>
<rect x="170" y="110" width="10" height="10" fill="#1a3a5c"/>
<rect x="210" y="110" width="10" height="10" fill="#1a3a5c"/>
<rect x="220" y="110" width="10" height="10" fill="#1a3a5c"/>
<rect x="240" y="110" width="10" height="10" fill="#1a3a5c"/>
<rect x="250" y="110" width="10" height="10" fill="#1a3a5c"/>
<rect x="280" y="110" width="10" height="10" fill="#1a3a5c"/>
<rect x="310" y="110" width="10" height="10" fill="#1a3a5c"/>
<rect x="330" y="110" width="10" height="10" fill="#1a3a5c"/>
<rect x="340" y="110" width="10" height="10" fill="#1a3a5c"/>
<rect x="20" y="120" width="10" height="10" fill="#1a3a5c"/>
<rect x="30" y="120" width="10" height="10" fill="#1a3a5c"/>
<rect x="40" y="120" width="10" height="10" fill="#1a3a5c"/>
<rect x="50" y="120" width="10" height="10" fill="#1a3a5c"/>
<rect x="70" y="120" width="10" height="10" fill="#1a3a5c"/>
<rect x="80" y="120" width="10" height="10" fill="#1a3a5c"/>
<rect x="100" y="120" width="10" height="10" fill="#1a3a5c"/>
<rect x="150" y="120" width="10" height="10" fill="#1a3a5c"/>
<rect x="160" y="120" width="10" height="10" fill="#1a3a5c"/>
<rect x="170" y="120" width="10" height="10" fill="#1a3a5c"/>
<rect x="190" y="120" width="10" height="10" fill="#1a3a5c"/>
<rect x="210" y="120" width="10" height="10" fill="#1a3a5c"/>
<rect x="230" y="120" width="10" height="10" fill="#1a3a5c"/>
<rect x="250" y="120" width="10" height="10" fill="#1a3a5c"/>
<rect x="310" y="120" width="10" height="10" fill="#1a3a5c"/>
<rect x="320" y="120" width="10" height="10" fill="#1a3a5c"/>
<rect x="340" y="120" width="10" height="10" fill="#1a3a5c"/>
<rect x="50" y="130" width="10" height="10" fill="#1a3a5c"/>
<rect x="100" y="130" width="10" height="10" fill="#1a3a5c"/>
<rect x="120" y="130" width="10" height="10" fill="#1a3a5c"/>
<rect x="130" y="130" width="10" height="10" fill="#1a3a5c"/>
<rect x="140" y="130" width="10" height="10" fill="#1a3a5c"/>
<rect x="160" y="130" width="10" height="10" fill="#1a3a5c"/>
<rect x="170" y="130" width="10" height="10" fill="#1a3a5c"/>
<rect x="180" y="130" width="10" height="10" fill="#1a3a5c"/>
<rect x="210" y="130" width="10" height="10" fill="#1a3a5c"/>
<rect x="220" y="130" width="10" height="10" fill="#1a3a5c"/>
<rect x="240" y="130" width="10" height="10" fill="#1a3a5c"/>
<rect x="260" y="130" width="10" height="10" fill="#1a3a5c"/>
<rect x="280" y="130" width="10" height="10" fill="#1a3a5c"/>
<rect x="290" y="130" width="10" height="10" fill="#1a3a5c"/>
<rect x="300" y="130" width="10" height="10" fill="#1a3a5c"/>
<rect x="310" y="130" width="10" height="10" fill="#1a3a5c"/>
<rect x="20" y="140" width="10" height="10" fill="#1a3a5c"/>
<rect x="30" y="140" width="10" height="10" fill="#1a3a5c"/>
<rect x="40" y="140" width="10" height="10" fill="#1a3a5c"/>
<rect x="50" y="140" width="10" height="10" fill="#1a3a5c"/>
<rect x="70" y="140" width="10" height="10" fill="#1a3a5c"/>
<rect x="80" y="140" width="10" height="10" fill="#1a3a5c"/>
<rect x="130" y="140" width="10" height="10" fill="#1a3a5c"/>
<rect x="150" y="140" width="10" height="10" fill="#1a3a5c"/>
<rect x="160" y="140" width="10" height="10" fill="#1a3a5c"/>
<rect x="180" y="140" width="10" height="10" fill="#1a3a5c"/>
<rect x="210" y="140" width="10" height="10" fill="#1a3a5c"/>
<rect x="220" y="140" width="10" height="10" fill="#1a3a5c"/>
<rect x="250" y="140" width="10" height="10" fill="#1a3a5c"/>
<rect x="260" y="140" width="10" height="10" fill="#1a3a5c"/>
<rect x="270" y="140" width="10" height="10" fill="#1a3a5c"/>
<rect x="280" y="140" width="10" height="10" fill="#1a3a5c"/>
<rect x="290" y="140" width="10" height="10" fill="#1a3a5c"/>
<rect x="330" y="140" width="10" height="10" fill="#1a3a5c"/>
<rect x="340" y="140" width="10" height="10" fill="#1a3a5c"/>
<rect x="20" y="150" width="10" height="10" fill="#1a3a5c"/>
<rect x="40" y="150" width="10" height="10" fill="#1a3a5c"/>
<rect x="50" y="150" width="10" height="10" fill="#1a3a5c"/>
<rect x="60" y="150" width="10" height="10" fill="#1a3a5c"/>
<rect x="90" y="150" width="10" height="10" fill="#1a3a5c"/>
<rect x="110" y="150" width="10" height="10" fill="#1a3a5c"/>
<rect x="120" y="150" width="10" height="10" fill="#1a3a5c"/>
<rect x="130" y="150" width="10" height="10" fill="#1a3a5c"/>
<rect x="150" y="150" width="10" height="10" fill="#1a3a5c"/>
<rect x="160" y="150" width="10" height="10" fill="#1a3a5c"/>
<rect x="180" y="150" width="10" height="10" fill="#1a3a5c"/>
<rect x="190" y="150" width="10" height="10" fill="#1a3a5c"/>
<rect x="210" y="150" width="10" height="10" fill="#1a3a5c"/>
<rect x="250" y="150" width="10" height="10" fill="#1a3a5c"/>
<rect x="280" y="150" width="10" height="10" fill="#1a3a5c"/>
<rect x="290" y="150" width="10" height="10" fill="#1a3a5c"/>
<rect x="310" y="150" width="10" height="10" fill="#1a3a5c"/>
<rect x="330" y="150" width="10" height="10" fill="#1a3a5c"/>
<rect x="340" y="150" width="10" height="10" fill="#1a3a5c"/>
<rect x="40" y="160" width="10" height="10" fill="#1a3a5c"/>
<rect x="50" y="160" width="10" height="10" fill="#1a3a5c"/>
<rect x="80" y="160" width="10" height="10" fill="#1a3a5c"/>
<rect x="130" y="160" width="10" height="10" fill="#1a3a5c"/>
<rect x="140" y="160" width="10" height="10" fill="#1a3a5c"/>
<rect x="180" y="160" width="10" height="10" fill="#1a3a5c"/>
<rect x="190" y="160" width="10" height="10" fill="#1a3a5c"/>
<rect x="200" y="160" width="10" height="10" fill="#1a3a5c"/>
<rect x="210" y="160" width="10" height="10" fill="#1a3a5c"/>
<rect x="250" y="160" width="10" height="10" fill="#1a3a5c"/>
<rect x="260" y="160" width="10" height="10" fill="#1a3a5c"/>
<rect x="300" y="160" width="10" height="10" fill="#1a3a5c"/>
<rect x="320" y="160" width="10" height="10" fill="#1a3a5c"/>
<rect x="340" y="160" width="10" height="10" fill="#1a3a5c"/>
<rect x="30" y="170" width="10" height="10" fill="#1a3a5c"/>
<rect x="60" y="170" width="10" height="10" fill="#1a3a5c"/>
<rect x="90" y="170" width="10" height="10" fill="#1a3a5c"/>
<rect x="110" y="170" width="10" height="10" fill="#1a3a5c"/>
<rect x="130" y="170" width="10" height="10" fill="#1a3a5c"/>
<rect x="140" y="170" width="10" height="10" fill="#1a3a5c"/>
<rect x="160" y="170" width="10" height="10" fill="#1a3a5c"/>
<rect x="170" y="170" width="10" height="10" fill="#1a3a5c"/>
<rect x="180" y="170" width="10" height="10" fill="#1a3a5c"/>
<rect x="220" y="170" width="10" height="10" fill="#1a3a5c"/>
<rect x="260" y="170" width="10" height="10" fill="#1a3a5c"/>
<rect x="270" y="170" width="10" height="10" fill="#1a3a5c"/>
<rect x="280" y="170" width="10" height="10" fill="#1a3a5c"/>
<rect x="290" y="170" width="10" height="10" fill="#1a3a5c"/>
<rect x="310" y="170" width="10" height="10" fill="#1a3a5c"/>
<rect x="20" y="180" width="10" height="10" fill="#1a3a5c"/>
<rect x="60" y="180" width="10" height="10" fill="#1a3a5c"/>
<rect x="70" y="180" width="10" height="10" fill="#1a3a5c"/>
<rect x="80" y="180" width="10" height="10" fill="#1a3a5c"/>
<rect x="90" y="180" width="10" height="10" fill="#1a3a5c"/>
<rect x="110" y="180" width="10" height="10" fill="#1a3a5c"/>
<rect x="130" y="180" width="10" height="10" fill="#1a3a5c"/>
<rect x="140" y="180" width="10" height="10" fill="#1a3a5c"/>
<rect x="150" y="180" width="10" height="10" fill="#1a3a5c"/>
<rect x="180" y="180" width="10" height="10" fill="#1a3a5c"/>
<rect x="210" y="180" width="10" height="10" fill="#1a3a5c"/>
<rect x="220" y="180" width="10" height="10" fill="#1a3a5c"/>
<rect x="240" y="180" width="10" height="10" fill="#1a3a5c"/>
<rect x="250" y="180" width="10" height="10" fill="#1a3a5c"/>
<rect x="270" y="180" width="10" height="10" fill="#1a3a5c"/>
<rect x="280" y="180" width="10" height="10" fill="#1a3a5c"/>
<rect x="290" y="180" width="10" height="10" fill="#1a3a5c"/>
<rect x="330" y="180" width="10" height="10" fill="#1a3a5c"/>
<rect x="40" y="190" width="10" height="10" fill="#1a3a5c"/>
<rect x="50" y="190" width="10" height="10" fill="#1a3a5c"/>
<rect x="60" y="190" width="10" height="10" fill="#1a3a5c"/>
<rect x="70" y="190" width="10" height="10" fill="#1a3a5c"/>
<rect x="100" y="190" width="10" height="10" fill="#1a3a5c"/>
<rect x="110" y="190" width="10" height="10" fill="#1a3a5c"/>
<rect x="130" y="190" width="10" height="10" fill="#1a3a5c"/>
<rect x="140" y="190" width="10" height="10" fill="#1a3a5c"/>
<rect x="160" y="190" width="10" height="10" fill="#1a3a5c"/>
<rect x="170" y="190" width="10" height="10" fill="#1a3a5c"/>
<rect x="180" y="190" width="10" height="10" fill="#1a3a5c"/>
<rect x="190" y="190" width="10" height="10" fill="#1a3a5c"/>
<rect x="200" y="190" width="10" height="10" fill="#1a3a5c"/>
<rect x="210" y="190" width="10" height="10" fill="#1a3a5c"/>
<rect x="220" y="190" width="10" height="10" fill="#1a3a5c"/>
<rect x="230" y="190" width="10" height="10" fill="#1a3a5c"/>
<rect x="240" y="190" width="10" height="10" fill="#1a3a5c"/>
<rect x="250" y="190" width="10" height="10" fill="#1a3a5c"/>
<rect x="270" y="190" width="10" height="10" fill="#1a3a5c"/>
<rect x="280" y="190" width="10" height="10" fill="#1a3a5c"/>
<rect x="310" y="190" width="10" height="10" fill="#1a3a5c"/>
<rect x="330" y="190" width="10" height="10" fill="#1a3a5c"/>
<rect x="340" y="190" width="10" height="10" fill="#1a3a5c"/>
<rect x="30" y="200" width="10" height="10" fill="#1a3a5c"/>
<rect x="50" y="200" width="10" height="10" fill="#1a3a5c"/>
<rect x="80" y="200" width="10" height="10" fill="#1a3a5c"/>
<rect x="90" y="200" width="10" height="10" fill="#1a3a5c"/>
<rect x="100" y="200" width="10" height="10" fill="#1a3a5c"/>
<rect x="160" y="200" width="10" height="10" fill="#1a3a5c"/>
<rect x="170" y="200" width="10" height="10" fill="#1a3a5c"/>
<rect x="190" y="200" width="10" height="10" fill="#1a3a5c"/>
<rect x="210" y="200" width="10" height="10" fill="#1a3a5c"/>
<rect x="220" y="200" width="10" height="10" fill="#1a3a5c"/>
<rect x="230" y="200" width="10" height="10" fill="#1a3a5c"/>
<rect x="250" y="200" width="10" height="10" fill="#1a3a5c"/>
<rect x="290" y="200" width="10" height="10" fill="#1a3a5c"/>
<rect x="310" y="200" width="10" height="10" fill="#1a3a5c"/>
<rect x="320" y="200" width="10" height="10" fill="#1a3a5c"/>
<rect x="340" y="200" width="10" height="10" fill="#1a3a5c"/>
<rect x="30" y="210" width="10" height="10" fill="#1a3a5c"/>
<rect x="40" y="210" width="10" height="10" fill="#1a3a5c"/>
<rect x="60" y="210" width="10" height="10" fill="#1a3a5c"/>
<rect x="70" y="210" width="10" height="10" fill="#1a3a5c"/>
<rect x="90" y="210" width="10" height="10" fill="#1a3a5c"/>
<rect x="110" y="210" width="10" height="10" fill="#1a3a5c"/>
<rect x="120" y="210" width="10" height="10" fill="#1a3a5c"/>
<rect x="160" y="210" width="10" height="10" fill="#1a3a5c"/>
<rect x="200" y="210" width="10" height="10" fill="#1a3a5c"/>
<rect x="210" y="210" width="10" height="10" fill="#1a3a5c"/>
<rect x="220" y="210" width="10" height="10" fill="#1a3a5c"/>
<rect x="250" y="210" width="10" height="10" fill="#1a3a5c"/>
<rect x="270" y="210" width="10" height="10" fill="#1a3a5c"/>
<rect x="280" y="210" width="10" height="10" fill="#1a3a5c"/>
<rect x="300" y="210" width="10" height="10" fill="#1a3a5c"/>
<rect x="310" y="210" width="10" height="10" fill="#1a3a5c"/>
<rect x="330" y="210" width="10" height="10" fill="#1a3a5c"/>
<rect x="20" y="220" width="10" height="10" fill="#1a3a5c"/>
<rect x="40" y="220" width="10" height="10" fill="#1a3a5c"/>
<rect x="50" y="220" width="10" height="10" fill="#1a3a5c"/>
<rect x="80" y="220" width="10" height="10" fill="#1a3a5c"/>
<rect x="90" y="220" width="10" height="10" fill="#1a3a5c"/>
<rect x="110" y="220" width="10" height="10" fill="#1a3a5c"/>
<rect x="150" y="220" width="10" height="10" fill="#1a3a5c"/>
<rect x="160" y="220" width="10" height="10" fill="#1a3a5c"/>
<rect x="220" y="220" width="10" height="10" fill="#1a3a5c"/>
<rect x="250" y="220" width="10" height="10" fill="#1a3a5c"/>
<rect x="280" y="220" width="10" height="10" fill="#1a3a5c"/>
<rect x="30" y="230" width="10" height="10" fill="#1a3a5c"/>
<rect x="50" y="230" width="10" height="10" fill="#1a3a5c"/>
<rect x="110" y="230" width="10" height="10" fill="#1a3a5c"/>
<rect x="130" y="230" width="10" height="10" fill="#1a3a5c"/>
<rect x="210" y="230" width="10" height="10" fill="#1a3a5c"/>
<rect x="220" y="230" width="10" height="10" fill="#1a3a5c"/>
<rect x="230" y="230" width="10" height="10" fill="#1a3a5c"/>
<rect x="250" y="230" width="10" height="10" fill="#1a3a5c"/>
<rect x="260" y="230" width="10" height="10" fill="#1a3a5c"/>
<rect x="270" y="230" width="10" height="10" fill="#1a3a5c"/>
<rect x="280" y="230" width="10" height="10" fill="#1a3a5c"/>
<rect x="290" y="230" width="10" height="10" fill="#1a3a5c"/>
<rect x="340" y="230" width="10" height="10" fill="#1a3a5c"/>
<rect x="20" y="240" width="10" height="10" fill="#1a3a5c"/>
<rect x="30" y="240" width="10" height="10" fill="#1a3a5c"/>
<rect x="40" y="240" width="10" height="10" fill="#1a3a5c"/>
<rect x="50" y="240" width="10" height="10" fill="#1a3a5c"/>
<rect x="70" y="240" width="10" height="10" fill="#1a3a5c"/>
<rect x="80" y="240" width="10" height="10" fill="#1a3a5c"/>
<rect x="100" y="240" width="10" height="10" fill="#1a3a5c"/>
<rect x="120" y="240" width="10" height="10" fill="#1a3a5c"/>
<rect x="150" y="240" width="10" height="10" fill="#1a3a5c"/>
<rect x="160" y="240" width="10" height="10" fill="#1a3a5c"/>
<rect x="170" y="240" width="10" height="10" fill="#1a3a5c"/>
<rect x="190" y="240" width="10" height="10" fill="#1a3a5c"/>
<rect x="210" y="240" width="10" height="10" fill="#1a3a5c"/>
<rect x="230" y="240" width="10" height="10" fill="#1a3a5c"/>
<rect x="240" y="240" width="10" height="10" fill="#1a3a5c"/>
<rect x="250" y="240" width="10" height="10" fill="#1a3a5c"/>
<rect x="270" y="240" width="10" height="10" fill="#1a3a5c"/>
<rect x="280" y="240" width="10" height="10" fill="#1a3a5c"/>
<rect x="290" y="240" width="10" height="10" fill="#1a3a5c"/>
<rect x="340" y="240" width="10" height="10" fill="#1a3a5c"/>
<rect x="60" y="250" width="10" height="10" fill="#1a3a5c"/>
<rect x="70" y="250" width="10" height="10" fill="#1a3a5c"/>
<rect x="100" y="250" width="10" height="10" fill="#1a3a5c"/>
<rect x="130" y="250" width="10" height="10" fill="#1a3a5c"/>
<rect x="150" y="250" width="10" height="10" fill="#1a3a5c"/>
<rect x="200" y="250" width="10" height="10" fill="#1a3a5c"/>
<rect x="220" y="250" width="10" height="10" fill="#1a3a5c"/>
<rect x="260" y="250" width="10" height="10" fill="#1a3a5c"/>
<rect x="280" y="250" width="10" height="10" fill="#1a3a5c"/>
<rect x="20" y="260" width="10" height="10" fill="#1a3a5c"/>
<rect x="30" y="260" width="10" height="10" fill="#1a3a5c"/>
<rect x="40" y="260" width="10" height="10" fill="#1a3a5c"/>
<rect x="50" y="260" width="10" height="10" fill="#1a3a5c"/>
<rect x="70" y="260" width="10" height="10" fill="#1a3a5c"/>
<rect x="80" y="260" width="10" height="10" fill="#1a3a5c"/>
<rect x="120" y="260" width="10" height="10" fill="#1a3a5c"/>
<rect x="150" y="260" width="10" height="10" fill="#1a3a5c"/>
<rect x="170" y="260" width="10" height="10" fill="#1a3a5c"/>
<rect x="180" y="260" width="10" height="10" fill="#1a3a5c"/>
<rect x="220" y="260" width="10" height="10" fill="#1a3a5c"/>
<rect x="240" y="260" width="10" height="10" fill="#1a3a5c"/>
<rect x="250" y="260" width="10" height="10" fill="#1a3a5c"/>
<rect x="260" y="260" width="10" height="10" fill="#1a3a5c"/>
<rect x="270" y="260" width="10" height="10" fill="#1a3a5c"/>
<rect x="280" y="260" width="10" height="10" fill="#1a3a5c"/>
<rect x="290" y="260" width="10" height="10" fill="#1a3a5c"/>
<rect x="300" y="260" width="10" height="10" fill="#1a3a5c"/>
<rect x="310" y="260" width="10" height="10" fill="#1a3a5c"/>
<rect x="330" y="260" width="10" height="10" fill="#1a3a5c"/>
<rect x="100" y="270" width="10" height="10" fill="#1a3a5c"/>
<rect x="110" y="270" width="10" height="10" fill="#1a3a5c"/>
<rect x="140" y="270" width="10" height="10" fill="#1a3a5c"/>
<rect x="160" y="270" width="10" height="10" fill="#1a3a5c"/>
<rect x="170" y="270" width="10" height="10" fill="#1a3a5c"/>
<rect x="180" y="270" width="10" height="10" fill="#1a3a5c"/>
<rect x="190" y="270" width="10" height="10" fill="#1a3a5c"/>
<rect x="210" y="270" width="10" height="10" fill="#1a3a5c"/>
<rect x="240" y="270" width="10" height="10" fill="#1a3a5c"/>
<rect x="250" y="270" width="10" height="10" fill="#1a3a5c"/>
<rect x="260" y="270" width="10" height="10" fill="#1a3a5c"/>
<rect x="300" y="270" width="10" height="10" fill="#1a3a5c"/>
<rect x="340" y="270" width="10" height="10" fill="#1a3a5c"/>
<rect x="20" y="280" width="10" height="10" fill="#1a3a5c"/>
<rect x="30" y="280" width="10" height="10" fill="#1a3a5c"/>
<rect x="40" y="280" width="10" height="10" fill="#1a3a5c"/>
<rect x="50" y="280" width="10" height="10" fill="#1a3a5c"/>
<rect x="60" y="280" width="10" height="10" fill="#1a3a5c"/>
<rect x="70" y="280" width="10" height="10" fill="#1a3a5c"/>
<rect x="80" y="280" width="10" height="10" fill="#1a3a5c"/>
<rect x="100" y="280" width="10" height="10" fill="#1a3a5c"/>
<rect x="110" y="280" width="10" height="10" fill="#1a3a5c"/>
<rect x="120" y="280" width="10" height="10" fill="#1a3a5c"/>
<rect x="140" y="280" width="10" height="10" fill="#1a3a5c"/>
<rect x="160" y="280" width="10" height="10" fill="#1a3a5c"/>
<rect x="170" y="280" width="10" height="10" fill="#1a3a5c"/>
<rect x="180" y="280" width="10" height="10" fill="#1a3a5c"/>
<rect x="190" y="280" width="10" height="10" fill="#1a3a5c"/>
<rect x="210" y="280" width="10" height="10" fill="#1a3a5c"/>
<rect x="220" y="280" width="10" height="10" fill="#1a3a5c"/>
<rect x="240" y="280" width="10" height="10" fill="#1a3a5c"/>
<rect x="260" y="280" width="10" height="10" fill="#1a3a5c"/>
<rect x="280" y="280" width="10" height="10" fill="#1a3a5c"/>
<rect x="300" y="280" width="10" height="10" fill="#1a3a5c"/>
<rect x="310" y="280" width="10" height="10" fill="#1a3a5c"/>
<rect x="320" y="280" width="10" height="10" fill="#1a3a5c"/>
<rect x="340" y="280" width="10" height="10" fill="#1a3a5c"/>
<rect x="20" y="290" width="10" height="10" fill="#1a3a5c"/>
<rect x="80" y="290" width="10" height="10" fill="#1a3a5c"/>
<rect x="110" y="290" width="10" height="10" fill="#1a3a5c"/>
<rect x="130" y="290" width="10" height="10" fill="#1a3a5c"/>
<rect x="140" y="290" width="10" height="10" fill="#1a3a5c"/>
<rect x="170" y="290" width="10" height="10" fill="#1a3a5c"/>
<rect x="180" y="290" width="10" height="10" fill="#1a3a5c"/>
<rect x="220" y="290" width="10" height="10" fill="#1a3a5c"/>
<rect x="240" y="290" width="10" height="10" fill="#1a3a5c"/>
<rect x="260" y="290" width="10" height="10" fill="#1a3a5c"/>
<rect x="300" y="290" width="10" height="10" fill="#1a3a5c"/>
<rect x="310" y="290" width="10" height="10" fill="#1a3a5c"/>
<rect x="330" y="290" width="10" height="10" fill="#1a3a5c"/>
<rect x="20" y="300" width="10" height="10" fill="#1a3a5c"/>
<rect x="40" y="300" width="10" height="10" fill="#1a3a5c"/>
<rect x="50" y="300" width="10" height="10" fill="#1a3a5c"/>
<rect x="60" y="300" width="10" height="10" fill="#1a3a5c"/>
<rect x="80" y="300" width="10" height="10" fill="#1a3a5c"/>
<rect x="120" y="300" width="10" height="10" fill="#1a3a5c"/>
<rect x="160" y="300" width="10" height="10" fill="#1a3a5c"/>
<rect x="180" y="300" width="10" height="10" fill="#1a3a5c"/>
<rect x="190" y="300" width="10" height="10" fill="#1a3a5c"/>
<rect x="200" y="300" width="10" height="10" fill="#1a3a5c"/>
<rect x="210" y="300" width="10" height="10" fill="#1a3a5c"/>
<rect x="220" y="300" width="10" height="10" fill="#1a3a5c"/>
<rect x="250" y="300" width="10" height="10" fill="#1a3a5c"/>
<rect x="260" y="300" width="10" height="10" fill="#1a3a5c"/>
<rect x="270" y="300" width="10" height="10" fill="#1a3a5c"/>
<rect x="280" y="300" width="10" height="10" fill="#1a3a5c"/>
<rect x="290" y="300" width="10" height="10" fill="#1a3a5c"/>
<rect x="300" y="300" width="10" height="10" fill="#1a3a5c"/>
<rect x="330" y="300" width="10" height="10" fill="#1a3a5c"/>
<rect x="340" y="300" width="10" height="10" fill="#1a3a5c"/>
<rect x="20" y="310" width="10" height="10" fill="#1a3a5c"/>
<rect x="40" y="310" width="10" height="10" fill="#1a3a5c"/>
<rect x="50" y="310" width="10" height="10" fill="#1a3a5c"/>
<rect x="60" y="310" width="10" height="10" fill="#1a3a5c"/>
<rect x="80" y="310" width="10" height="10" fill="#1a3a5c"/>
<rect x="110" y="310" width="10" height="10" fill="#1a3a5c"/>
<rect x="130" y="310" width="10" height="10" fill="#1a3a5c"/>
<rect x="160" y="310" width="10" height="10" fill="#1a3a5c"/>
<rect x="180" y="310" width="10" height="10" fill="#1a3a5c"/>
<rect x="210" y="310" width="10" height="10" fill="#1a3a5c"/>
<rect x="220" y="310" width="10" height="10" fill="#1a3a5c"/>
<rect x="290" y="310" width="10" height="10" fill="#1a3a5c"/>
<rect x="300" y="310" width="10" height="10" fill="#1a3a5c"/>
<rect x="310" y="310" width="10" height="10" fill="#1a3a5c"/>
<rect x="320" y="310" width="10" height="10" fill="#1a3a5c"/>
<rect x="330" y="310" width="10" height="10" fill="#1a3a5c"/>
<rect x="340" y="310" width="10" height="10" fill="#1a3a5c"/>
<rect x="20" y="320" width="10" height="10" fill="#1a3a5c"/>
<rect x="40" y="320" width="10" height="10" fill="#1a3a5c"/>
<rect x="50" y="320" width="10" height="10" fill="#1a3a5c"/>
<rect x="60" y="320" width="10" height="10" fill="#1a3a5c"/>
<rect x="80" y="320" width="10" height="10" fill="#1a3a5c"/>
<rect x="100" y="320" width="10" height="10" fill="#1a3a5c"/>
<rect x="110" y="320" width="10" height="10" fill="#1a3a5c"/>
<rect x="150" y="320" width="10" height="10" fill="#1a3a5c"/>
<rect x="180" y="320" width="10" height="10" fill="#1a3a5c"/>
<rect x="200" y="320" width="10" height="10" fill="#1a3a5c"/>
<rect x="210" y="320" width="10" height="10" fill="#1a3a5c"/>
<rect x="240" y="320" width="10" height="10" fill="#1a3a5c"/>
<rect x="250" y="320" width="10" height="10" fill="#1a3a5c"/>
<rect x="260" y="320" width="10" height="10" fill="#1a3a5c"/>
<rect x="290" y="320" width="10" height="10" fill="#1a3a5c"/>
<rect x="300" y="320" width="10" height="10" fill="#1a3a5c"/>
<rect x="320" y="320" width="10" height="10" fill="#1a3a5c"/>
<rect x="330" y="320" width="10" height="10" fill="#1a3a5c"/>
<rect x="340" y="320" width="10" height="10" fill="#1a3a5c"/>
<rect x="20" y="330" width="10" height="10" fill="#1a3a5c"/>
<rect x="80" y="330" width="10" height="10" fill="#1a3a5c"/>
<rect x="110" y="330" width="10" height="10" fill="#1a3a5c"/>
<rect x="130" y="330" width="10" height="10" fill="#1a3a5c"/>
<rect x="140" y="330" width="10" height="10" fill="#1a3a5c"/>
<rect x="170" y="330" width="10" height="10" fill="#1a3a5c"/>
<rect x="180" y="330" width="10" height="10" fill="#1a3a5c"/>
<rect x="210" y="330" width="10" height="10" fill="#1a3a5c"/>
<rect x="220" y="330" width="10" height="10" fill="#1a3a5c"/>
<rect x="240" y="330" width="10" height="10" fill="#1a3a5c"/>
<rect x="250" y="330" width="10" height="10" fill="#1a3a5c"/>
<rect x="260" y="330" width="10" height="10" fill="#1a3a5c"/>
<rect x="290" y="330" width="10" height="10" fill="#1a3a5c"/>
<rect x="300" y="330" width="10" height="10" fill="#1a3a5c"/>
<rect x="310" y="330" width="10" height="10" fill="#1a3a5c"/>
<rect x="20" y="340" width="10" height="10" fill="#1a3a5c"/>
<rect x="30" y="340" width="10" height="10" fill="#1a3a5c"/>
<rect x="40" y="340" width="10" height="10" fill="#1a3a5c"/>
<rect x="50" y="340" width="10" height="10" fill="#1a3a5c"/>
<rect x="60" y="340" width="10" height="10" fill="#1a3a5c"/>
<rect x="70" y="340" width="10" height="10" fill="#1a3a5c"/>
<rect x="80" y="340" width="10" height="10" fill="#1a3a5c"/>
<rect x="100" y="340" width="10" height="10" fill="#1a3a5c"/>
<rect x="130" y="340" width="10" height="10" fill="#1a3a5c"/>
<rect x="140" y="340" width="10" height="10" fill="#1a3a5c"/>
<rect x="150" y="340" width="10" height="10" fill="#1a3a5c"/>
<rect x="180" y="340" width="10" height="10" fill="#1a3a5c"/>
<rect x="200" y="340" width="10" height="10" fill="#1a3a5c"/>
<rect x="240" y="340" width="10" height="10" fill="#1a3a5c"/>
<rect x="260" y="340" width="10" height="10" fill="#1a3a5c"/>
<rect x="290" y="340" width="10" height="10" fill="#1a3a5c"/>
<rect x="300" y="340" width="10" height="10" fill="#1a3a5c"/>
<rect x="340" y="340" width="10" height="10" fill="#1a3a5c"/>
</svg>